<svg xmlns="http://www.w3.org/2000/svg" xmlns:xlink="http://www.w3.org/1999/xlink" width="5000" zoomAndPan="magnify" viewBox="0 0 3750 3749.999967" height="5000" preserveAspectRatio="xMidYMid meet" version="1.0"><defs><g/><clipPath id="id1"><path d="M 409.792969 1135 L 944 1135 L 944 1670 L 409.792969 1670 Z M 409.792969 1135 " clip-rule="nonzero"/></clipPath><clipPath id="id2"><path d="M 2680 1135 L 3214.792969 1135 L 3214.792969 1670 L 2680 1670 Z M 2680 1135 " clip-rule="nonzero"/></clipPath><clipPath id="id3"><path d="M 409.792969 0 L 3214.792969 0 L 3214.792969 2805 L 409.792969 2805 Z M 409.792969 0 " clip-rule="nonzero"/></clipPath></defs><path fill="rgb(9.01947%, 84.709167%, 88.62915%)" d="M 2079.203125 266.910156 C 2079.203125 271.277344 2079.09375 275.644531 2078.882812 280.007812 C 2078.667969 284.371094 2078.34375 288.722656 2077.917969 293.070312 C 2077.488281 297.417969 2076.953125 301.753906 2076.3125 306.074219 C 2075.671875 310.394531 2074.925781 314.695312 2074.074219 318.980469 C 2073.222656 323.265625 2072.265625 327.527344 2071.203125 331.765625 C 2070.140625 336 2068.976562 340.210938 2067.710938 344.390625 C 2066.441406 348.570312 2065.070312 352.714844 2063.601562 356.828125 C 2062.128906 360.941406 2060.558594 365.015625 2058.886719 369.050781 C 2057.214844 373.085938 2055.445312 377.078125 2053.578125 381.027344 C 2051.707031 384.976562 2049.746094 388.878906 2047.6875 392.730469 C 2045.628906 396.582031 2043.472656 400.382812 2041.230469 404.128906 C 2038.984375 407.875 2036.648438 411.566406 2034.21875 415.195312 C 2031.792969 418.828125 2029.277344 422.398438 2026.675781 425.90625 C 2024.074219 429.417969 2021.386719 432.859375 2018.617188 436.234375 C 2015.84375 439.613281 2012.992188 442.917969 2010.058594 446.15625 C 2007.125 449.390625 2004.113281 452.554688 2001.027344 455.644531 C 1997.9375 458.734375 1994.773438 461.742188 1991.539062 464.675781 C 1988.300781 467.609375 1984.996094 470.464844 1981.617188 473.234375 C 1978.242188 476.003906 1974.800781 478.691406 1971.289062 481.292969 C 1967.78125 483.894531 1964.210938 486.410156 1960.578125 488.835938 C 1956.949219 491.265625 1953.257812 493.601562 1949.511719 495.847656 C 1945.765625 498.09375 1941.964844 500.246094 1938.113281 502.304688 C 1934.261719 504.363281 1930.359375 506.324219 1926.410156 508.195312 C 1922.460938 510.0625 1918.46875 511.832031 1914.433594 513.503906 C 1910.398438 515.175781 1906.324219 516.746094 1902.210938 518.21875 C 1898.097656 519.6875 1893.953125 521.058594 1889.773438 522.328125 C 1885.59375 523.59375 1881.382812 524.757812 1877.148438 525.820312 C 1872.910156 526.882812 1868.648438 527.839844 1864.363281 528.691406 C 1860.078125 529.542969 1855.777344 530.289062 1851.457031 530.929688 C 1847.136719 531.570312 1842.800781 532.105469 1838.453125 532.535156 C 1834.105469 532.960938 1829.753906 533.285156 1825.390625 533.5 C 1821.027344 533.710938 1816.660156 533.820312 1812.292969 533.820312 C 1807.925781 533.820312 1803.558594 533.710938 1799.195312 533.5 C 1794.832031 533.285156 1790.476562 532.960938 1786.132812 532.535156 C 1781.785156 532.105469 1777.449219 531.570312 1773.128906 530.929688 C 1768.808594 530.289062 1764.503906 529.542969 1760.222656 528.691406 C 1755.9375 527.839844 1751.675781 526.882812 1747.4375 525.820312 C 1743.203125 524.757812 1738.992188 523.59375 1734.8125 522.328125 C 1730.632812 521.058594 1726.484375 519.6875 1722.375 518.21875 C 1718.261719 516.746094 1714.1875 515.175781 1710.152344 513.503906 C 1706.113281 511.832031 1702.121094 510.0625 1698.175781 508.195312 C 1694.226562 506.324219 1690.324219 504.363281 1686.472656 502.304688 C 1682.621094 500.246094 1678.820312 498.089844 1675.074219 495.847656 C 1671.328125 493.601562 1667.636719 491.265625 1664.003906 488.835938 C 1660.375 486.410156 1656.804688 483.894531 1653.292969 481.292969 C 1649.785156 478.691406 1646.34375 476.003906 1642.96875 473.234375 C 1639.589844 470.460938 1636.285156 467.609375 1633.046875 464.675781 C 1629.808594 461.742188 1626.648438 458.730469 1623.558594 455.644531 C 1620.46875 452.554688 1617.457031 449.390625 1614.527344 446.15625 C 1611.59375 442.917969 1608.738281 439.613281 1605.96875 436.234375 C 1603.199219 432.859375 1600.511719 429.417969 1597.910156 425.90625 C 1595.304688 422.398438 1592.792969 418.828125 1590.363281 415.195312 C 1587.9375 411.566406 1585.601562 407.875 1583.355469 404.128906 C 1581.109375 400.382812 1578.957031 396.582031 1576.898438 392.730469 C 1574.839844 388.878906 1572.875 384.976562 1571.007812 381.027344 C 1569.140625 377.078125 1567.371094 373.085938 1565.699219 369.050781 C 1564.027344 365.015625 1562.457031 360.941406 1560.984375 356.828125 C 1559.515625 352.714844 1558.144531 348.570312 1556.875 344.390625 C 1555.609375 340.210938 1554.441406 336 1553.382812 331.765625 C 1552.320312 327.527344 1551.363281 323.265625 1550.511719 318.980469 C 1549.660156 314.695312 1548.914062 310.394531 1548.273438 306.074219 C 1547.628906 301.753906 1547.097656 297.417969 1546.667969 293.070312 C 1546.238281 288.722656 1545.917969 284.371094 1545.703125 280.007812 C 1545.488281 275.644531 1545.382812 271.277344 1545.382812 266.910156 C 1545.382812 262.542969 1545.488281 258.175781 1545.703125 253.8125 C 1545.917969 249.449219 1546.238281 245.09375 1546.667969 240.75 C 1547.097656 236.402344 1547.628906 232.066406 1548.273438 227.746094 C 1548.914062 223.425781 1549.660156 219.121094 1550.511719 214.839844 C 1551.363281 210.554688 1552.320312 206.292969 1553.382812 202.054688 C 1554.441406 197.820312 1555.609375 193.609375 1556.875 189.429688 C 1558.144531 185.25 1559.511719 181.105469 1560.984375 176.992188 C 1562.457031 172.878906 1564.027344 168.804688 1565.699219 164.769531 C 1567.371094 160.730469 1569.140625 156.738281 1571.007812 152.792969 C 1572.875 148.84375 1574.839844 144.941406 1576.898438 141.089844 C 1578.957031 137.238281 1581.109375 133.4375 1583.355469 129.691406 C 1585.601562 125.945312 1587.9375 122.253906 1590.363281 118.621094 C 1592.792969 114.992188 1595.304688 111.421875 1597.910156 107.910156 C 1600.511719 104.402344 1603.199219 100.960938 1605.96875 97.585938 C 1608.738281 94.207031 1611.59375 90.902344 1614.527344 87.664062 C 1617.457031 84.425781 1620.46875 81.265625 1623.558594 78.175781 C 1626.648438 75.085938 1629.808594 72.078125 1633.046875 69.144531 C 1636.285156 66.210938 1639.589844 63.355469 1642.96875 60.585938 C 1646.34375 57.816406 1649.785156 55.128906 1653.292969 52.527344 C 1656.804688 49.921875 1660.375 47.410156 1664.003906 44.984375 C 1667.636719 42.554688 1671.328125 40.21875 1675.074219 37.972656 C 1678.820312 35.726562 1682.621094 33.574219 1686.472656 31.515625 C 1690.324219 29.457031 1694.226562 27.492188 1698.175781 25.625 C 1702.121094 23.757812 1706.113281 21.988281 1710.152344 20.316406 C 1714.1875 18.644531 1718.261719 17.074219 1722.375 15.601562 C 1726.484375 14.132812 1730.632812 12.761719 1734.8125 11.492188 C 1738.992188 10.226562 1743.203125 9.058594 1747.4375 8 C 1751.675781 6.9375 1755.9375 5.980469 1760.222656 5.128906 C 1764.503906 4.277344 1768.808594 3.53125 1773.128906 2.890625 C 1777.449219 2.25 1781.785156 1.714844 1786.132812 1.285156 C 1790.476562 0.855469 1794.832031 0.535156 1799.195312 0.320312 C 1803.558594 0.105469 1807.925781 0 1812.292969 0 C 1816.660156 0 1821.027344 0.105469 1825.390625 0.320312 C 1829.753906 0.535156 1834.105469 0.855469 1838.453125 1.285156 C 1842.800781 1.714844 1847.136719 2.25 1851.457031 2.890625 C 1855.777344 3.53125 1860.078125 4.277344 1864.363281 5.128906 C 1868.648438 5.980469 1872.910156 6.9375 1877.148438 8 C 1881.382812 9.058594 1885.59375 10.226562 1889.773438 11.492188 C 1893.953125 12.761719 1898.097656 14.132812 1902.210938 15.601562 C 1906.324219 17.074219 1910.398438 18.644531 1914.433594 20.316406 C 1918.46875 21.988281 1922.460938 23.757812 1926.410156 25.625 C 1930.359375 27.492188 1934.261719 29.457031 1938.113281 31.515625 C 1941.964844 33.574219 1945.765625 35.726562 1949.511719 37.972656 C 1953.257812 40.21875 1956.949219 42.554688 1960.578125 44.984375 C 1964.210938 47.410156 1967.78125 49.921875 1971.289062 52.527344 C 1974.800781 55.128906 1978.242188 57.816406 1981.617188 60.585938 C 1984.996094 63.355469 1988.300781 66.210938 1991.539062 69.144531 C 1994.773438 72.078125 1997.9375 75.085938 2001.027344 78.175781 C 2004.113281 81.265625 2007.125 84.425781 2010.058594 87.664062 C 2012.992188 90.902344 2015.84375 94.207031 2018.617188 97.585938 C 2021.386719 100.960938 2024.074219 104.402344 2026.675781 107.910156 C 2029.277344 111.421875 2031.792969 114.992188 2034.21875 118.621094 C 2036.648438 122.253906 2038.984375 125.945312 2041.230469 129.691406 C 2043.472656 133.4375 2045.628906 137.238281 2047.6875 141.089844 C 2049.746094 144.941406 2051.707031 148.84375 2053.578125 152.792969 C 2055.445312 156.738281 2057.214844 160.730469 2058.886719 164.769531 C 2060.558594 168.804688 2062.128906 172.878906 2063.601562 176.992188 C 2065.070312 181.105469 2066.441406 185.25 2067.710938 189.429688 C 2068.976562 193.609375 2070.140625 197.820312 2071.203125 202.054688 C 2072.265625 206.292969 2073.222656 210.554688 2074.074219 214.839844 C 2074.925781 219.121094 2075.671875 223.425781 2076.3125 227.746094 C 2076.953125 232.066406 2077.488281 236.402344 2077.917969 240.75 C 2078.34375 245.09375 2078.667969 249.449219 2078.882812 253.8125 C 2079.09375 258.175781 2079.203125 262.542969 2079.203125 266.910156 Z M 2079.203125 266.910156 " fill-opacity="1" fill-rule="nonzero"/><path fill="rgb(9.01947%, 84.709167%, 88.62915%)" d="M 2079.203125 2538.089844 C 2079.203125 2542.457031 2079.09375 2546.824219 2078.882812 2551.1875 C 2078.667969 2555.550781 2078.34375 2559.90625 2077.917969 2564.253906 C 2077.488281 2568.597656 2076.953125 2572.933594 2076.3125 2577.253906 C 2075.671875 2581.574219 2074.925781 2585.878906 2074.074219 2590.160156 C 2073.222656 2594.445312 2072.265625 2598.707031 2071.203125 2602.945312 C 2070.140625 2607.179688 2068.976562 2611.390625 2067.710938 2615.570312 C 2066.441406 2619.75 2065.070312 2623.898438 2063.601562 2628.007812 C 2062.128906 2632.121094 2060.558594 2636.195312 2058.886719 2640.230469 C 2057.214844 2644.269531 2055.445312 2648.261719 2053.578125 2652.210938 C 2051.707031 2656.15625 2049.746094 2660.058594 2047.6875 2663.910156 C 2045.628906 2667.761719 2043.472656 2671.5625 2041.230469 2675.308594 C 2038.984375 2679.054688 2036.648438 2682.746094 2034.21875 2686.378906 C 2031.792969 2690.007812 2029.277344 2693.578125 2026.675781 2697.089844 C 2024.074219 2700.597656 2021.386719 2704.039062 2018.617188 2707.417969 C 2015.84375 2710.792969 2012.992188 2714.097656 2010.058594 2717.335938 C 2007.125 2720.574219 2004.113281 2723.734375 2001.027344 2726.824219 C 1997.9375 2729.914062 1994.773438 2732.925781 1991.539062 2735.859375 C 1988.300781 2738.792969 1984.996094 2741.644531 1981.617188 2744.414062 C 1978.242188 2747.1875 1974.800781 2749.871094 1971.289062 2752.472656 C 1967.78125 2755.078125 1964.210938 2757.589844 1960.578125 2760.019531 C 1956.949219 2762.445312 1953.257812 2764.78125 1949.511719 2767.027344 C 1945.765625 2769.273438 1941.964844 2771.425781 1938.113281 2773.484375 C 1934.261719 2775.542969 1930.359375 2777.507812 1926.410156 2779.375 C 1922.460938 2781.242188 1918.46875 2783.011719 1914.433594 2784.683594 C 1910.398438 2786.355469 1906.324219 2787.925781 1902.210938 2789.398438 C 1898.097656 2790.871094 1893.953125 2792.238281 1889.773438 2793.507812 C 1885.59375 2794.773438 1881.382812 2795.941406 1877.148438 2797 C 1872.910156 2798.0625 1868.648438 2799.019531 1864.363281 2799.871094 C 1860.078125 2800.722656 1855.777344 2801.46875 1851.457031 2802.109375 C 1847.136719 2802.753906 1842.800781 2803.285156 1838.453125 2803.714844 C 1834.105469 2804.144531 1829.753906 2804.464844 1825.390625 2804.679688 C 1821.027344 2804.894531 1816.660156 2805 1812.292969 2805 C 1807.925781 2805 1803.558594 2804.894531 1799.195312 2804.679688 C 1794.832031 2804.464844 1790.476562 2804.144531 1786.132812 2803.714844 C 1781.785156 2803.285156 1777.449219 2802.753906 1773.128906 2802.109375 C 1768.808594 2801.46875 1764.503906 2800.722656 1760.222656 2799.871094 C 1755.9375 2799.019531 1751.675781 2798.0625 1747.4375 2797 C 1743.203125 2795.941406 1738.992188 2794.773438 1734.8125 2793.507812 C 1730.632812 2792.238281 1726.484375 2790.871094 1722.375 2789.398438 C 1718.261719 2787.925781 1714.1875 2786.355469 1710.152344 2784.683594 C 1706.113281 2783.011719 1702.121094 2781.242188 1698.175781 2779.375 C 1694.226562 2777.507812 1690.324219 2775.542969 1686.472656 2773.484375 C 1682.621094 2771.425781 1678.820312 2769.273438 1675.074219 2767.027344 C 1671.328125 2764.78125 1667.636719 2762.445312 1664.003906 2760.015625 C 1660.375 2757.589844 1656.804688 2755.074219 1653.292969 2752.472656 C 1649.785156 2749.871094 1646.34375 2747.1875 1642.96875 2744.414062 C 1639.589844 2741.644531 1636.285156 2738.792969 1633.046875 2735.859375 C 1629.808594 2732.925781 1626.648438 2729.914062 1623.558594 2726.824219 C 1620.46875 2723.734375 1617.457031 2720.574219 1614.527344 2717.335938 C 1611.59375 2714.097656 1608.738281 2710.792969 1605.96875 2707.417969 C 1603.199219 2704.039062 1600.511719 2700.597656 1597.910156 2697.089844 C 1595.304688 2693.578125 1592.792969 2690.007812 1590.363281 2686.378906 C 1587.9375 2682.746094 1585.601562 2679.054688 1583.355469 2675.308594 C 1581.109375 2671.5625 1578.957031 2667.761719 1576.898438 2663.910156 C 1574.839844 2660.058594 1572.875 2656.15625 1571.007812 2652.210938 C 1569.140625 2648.261719 1567.371094 2644.269531 1565.699219 2640.230469 C 1564.027344 2636.195312 1562.457031 2632.121094 1560.984375 2628.007812 C 1559.515625 2623.898438 1558.144531 2619.75 1556.875 2615.570312 C 1555.609375 2611.390625 1554.441406 2607.179688 1553.382812 2602.945312 C 1552.320312 2598.707031 1551.363281 2594.445312 1550.511719 2590.160156 C 1549.660156 2585.878906 1548.914062 2581.574219 1548.273438 2577.253906 C 1547.628906 2572.933594 1547.097656 2568.597656 1546.667969 2564.253906 C 1546.238281 2559.90625 1545.917969 2555.550781 1545.703125 2551.1875 C 1545.488281 2546.824219 1545.382812 2542.457031 1545.382812 2538.089844 C 1545.382812 2533.722656 1545.488281 2529.355469 1545.703125 2524.992188 C 1545.917969 2520.632812 1546.238281 2516.277344 1546.667969 2511.929688 C 1547.097656 2507.582031 1547.628906 2503.246094 1548.273438 2498.925781 C 1548.914062 2494.605469 1549.660156 2490.304688 1550.511719 2486.019531 C 1551.363281 2481.734375 1552.320312 2477.472656 1553.382812 2473.238281 C 1554.441406 2469 1555.609375 2464.789062 1556.875 2460.609375 C 1558.144531 2456.429688 1559.511719 2452.285156 1560.984375 2448.171875 C 1562.457031 2444.058594 1564.027344 2439.984375 1565.699219 2435.949219 C 1567.371094 2431.914062 1569.140625 2427.921875 1571.007812 2423.972656 C 1572.875 2420.023438 1574.839844 2416.121094 1576.898438 2412.269531 C 1578.957031 2408.417969 1581.109375 2404.617188 1583.355469 2400.871094 C 1585.601562 2397.125 1587.9375 2393.433594 1590.363281 2389.804688 C 1592.792969 2386.171875 1595.304688 2382.601562 1597.910156 2379.09375 C 1600.511719 2375.582031 1603.199219 2372.140625 1605.96875 2368.765625 C 1608.738281 2365.386719 1611.59375 2362.082031 1614.527344 2358.84375 C 1617.457031 2355.609375 1620.46875 2352.445312 1623.558594 2349.355469 C 1626.648438 2346.265625 1629.808594 2343.257812 1633.046875 2340.324219 C 1636.285156 2337.390625 1639.589844 2334.539062 1642.96875 2331.765625 C 1646.34375 2328.996094 1649.785156 2326.308594 1653.292969 2323.707031 C 1656.804688 2321.105469 1660.375 2318.589844 1664.003906 2316.164062 C 1667.636719 2313.734375 1671.328125 2311.398438 1675.074219 2309.152344 C 1678.820312 2306.90625 1682.621094 2304.753906 1686.472656 2302.695312 C 1690.324219 2300.636719 1694.226562 2298.675781 1698.175781 2296.808594 C 1702.121094 2294.9375 1706.113281 2293.167969 1710.152344 2291.496094 C 1714.1875 2289.824219 1718.261719 2288.253906 1722.375 2286.78125 C 1726.484375 2285.3125 1730.632812 2283.941406 1734.8125 2282.671875 C 1738.992188 2281.40625 1743.203125 2280.242188 1747.4375 2279.179688 C 1751.675781 2278.117188 1755.9375 2277.160156 1760.222656 2276.308594 C 1764.503906 2275.457031 1768.808594 2274.710938 1773.128906 2274.070312 C 1777.449219 2273.429688 1781.785156 2272.894531 1786.132812 2272.464844 C 1790.476562 2272.039062 1794.832031 2271.714844 1799.195312 2271.503906 C 1803.558594 2271.289062 1807.925781 2271.179688 1812.292969 2271.179688 C 1816.660156 2271.179688 1821.027344 2271.289062 1825.390625 2271.503906 C 1829.753906 2271.714844 1834.105469 2272.039062 1838.453125 2272.464844 C 1842.800781 2272.894531 1847.136719 2273.429688 1851.457031 2274.070312 C 1855.777344 2274.710938 1860.078125 2275.457031 1864.363281 2276.308594 C 1868.648438 2277.160156 1872.910156 2278.117188 1877.148438 2279.179688 C 1881.382812 2280.242188 1885.59375 2281.40625 1889.773438 2282.671875 C 1893.953125 2283.941406 1898.097656 2285.3125 1902.210938 2286.78125 C 1906.324219 2288.253906 1910.398438 2289.824219 1914.433594 2291.496094 C 1918.46875 2293.167969 1922.460938 2294.9375 1926.410156 2296.808594 C 1930.359375 2298.675781 1934.261719 2300.636719 1938.113281 2302.695312 C 1941.964844 2304.753906 1945.765625 2306.90625 1949.511719 2309.152344 C 1953.257812 2311.398438 1956.949219 2313.734375 1960.578125 2316.164062 C 1964.210938 2318.589844 1967.78125 2321.105469 1971.289062 2323.707031 C 1974.800781 2326.308594 1978.242188 2328.996094 1981.617188 2331.765625 C 1984.996094 2334.539062 1988.300781 2337.390625 1991.539062 2340.324219 C 1994.773438 2343.257812 1997.9375 2346.265625 2001.027344 2349.355469 C 2004.113281 2352.445312 2007.125 2355.609375 2010.058594 2358.84375 C 2012.992188 2362.082031 2015.84375 2365.386719 2018.617188 2368.765625 C 2021.386719 2372.140625 2024.074219 2375.582031 2026.675781 2379.09375 C 2029.277344 2382.601562 2031.792969 2386.171875 2034.21875 2389.804688 C 2036.648438 2393.433594 2038.984375 2397.125 2041.230469 2400.871094 C 2043.472656 2404.617188 2045.628906 2408.417969 2047.6875 2412.269531 C 2049.746094 2416.121094 2051.707031 2420.023438 2053.578125 2423.972656 C 2055.445312 2427.921875 2057.214844 2431.914062 2058.886719 2435.949219 C 2060.558594 2439.984375 2062.128906 2444.058594 2063.601562 2448.171875 C 2065.070312 2452.285156 2066.441406 2456.429688 2067.710938 2460.609375 C 2068.976562 2464.789062 2070.140625 2469 2071.203125 2473.238281 C 2072.265625 2477.472656 2073.222656 2481.734375 2074.074219 2486.019531 C 2074.925781 2490.304688 2075.671875 2494.605469 2076.3125 2498.925781 C 2076.953125 2503.246094 2077.488281 2507.582031 2077.917969 2511.929688 C 2078.34375 2516.277344 2078.667969 2520.632812 2078.882812 2524.992188 C 2079.09375 2529.355469 2079.203125 2533.722656 2079.203125 2538.089844 Z M 2079.203125 2538.089844 " fill-opacity="1" fill-rule="nonzero"/><g clip-path="url(#id1)"><path fill="rgb(9.01947%, 84.709167%, 88.62915%)" d="M 943.613281 1402.5 C 943.613281 1406.867188 943.503906 1411.234375 943.289062 1415.597656 C 943.078125 1419.960938 942.753906 1424.316406 942.328125 1428.660156 C 941.898438 1433.007812 941.363281 1437.34375 940.722656 1441.664062 C 940.082031 1445.984375 939.335938 1450.289062 938.484375 1454.570312 C 937.632812 1458.855469 936.675781 1463.117188 935.613281 1467.355469 C 934.550781 1471.589844 933.386719 1475.800781 932.121094 1479.980469 C 930.851562 1484.160156 929.480469 1488.304688 928.007812 1492.417969 C 926.539062 1496.53125 924.964844 1500.605469 923.296875 1504.640625 C 921.625 1508.679688 919.855469 1512.671875 917.984375 1516.617188 C 916.117188 1520.566406 914.15625 1524.46875 912.097656 1528.320312 C 910.035156 1532.171875 907.882812 1535.972656 905.636719 1539.71875 C 903.394531 1543.464844 901.058594 1547.15625 898.628906 1550.789062 C 896.203125 1554.417969 893.6875 1557.988281 891.085938 1561.5 C 888.484375 1565.007812 885.796875 1568.449219 883.027344 1571.824219 C 880.253906 1575.203125 877.402344 1578.507812 874.46875 1581.746094 C 871.535156 1584.980469 868.523438 1588.144531 865.4375 1591.234375 C 862.347656 1594.324219 859.183594 1597.332031 855.949219 1600.265625 C 852.710938 1603.199219 849.40625 1606.054688 846.027344 1608.824219 C 842.652344 1611.59375 839.210938 1614.28125 835.699219 1616.882812 C 832.191406 1619.484375 828.621094 1622 824.988281 1624.425781 C 821.359375 1626.855469 817.667969 1629.191406 813.921875 1631.4375 C 810.175781 1633.683594 806.375 1635.835938 802.523438 1637.894531 C 798.671875 1639.953125 794.769531 1641.917969 790.820312 1643.785156 C 786.871094 1645.652344 782.878906 1647.421875 778.84375 1649.09375 C 774.808594 1650.765625 770.734375 1652.335938 766.621094 1653.808594 C 762.507812 1655.277344 758.363281 1656.648438 754.183594 1657.917969 C 750.003906 1659.183594 745.792969 1660.351562 741.554688 1661.410156 C 737.320312 1662.472656 733.058594 1663.429688 728.773438 1664.28125 C 724.488281 1665.132812 720.1875 1665.878906 715.867188 1666.519531 C 711.546875 1667.164062 707.210938 1667.695312 702.863281 1668.125 C 698.515625 1668.554688 694.160156 1668.875 689.800781 1669.089844 C 685.4375 1669.304688 681.070312 1669.410156 676.703125 1669.410156 C 672.335938 1669.410156 667.96875 1669.304688 663.605469 1669.089844 C 659.242188 1668.875 654.886719 1668.554688 650.539062 1668.125 C 646.195312 1667.695312 641.859375 1667.164062 637.539062 1666.519531 C 633.21875 1665.878906 628.914062 1665.132812 624.632812 1664.28125 C 620.347656 1663.429688 616.085938 1662.472656 611.847656 1661.410156 C 607.613281 1660.351562 603.402344 1659.183594 599.222656 1657.917969 C 595.042969 1656.648438 590.894531 1655.277344 586.785156 1653.808594 C 582.671875 1652.335938 578.597656 1650.765625 574.558594 1649.09375 C 570.523438 1647.421875 566.53125 1645.652344 562.582031 1643.785156 C 558.636719 1641.917969 554.734375 1639.953125 550.882812 1637.894531 C 547.03125 1635.835938 543.230469 1633.683594 539.484375 1631.4375 C 535.738281 1629.191406 532.046875 1626.855469 528.414062 1624.425781 C 524.785156 1622 521.214844 1619.484375 517.703125 1616.882812 C 514.195312 1614.28125 510.753906 1611.59375 507.375 1608.824219 C 504 1606.054688 500.695312 1603.199219 497.457031 1600.265625 C 494.21875 1597.332031 491.058594 1594.324219 487.96875 1591.234375 C 484.878906 1588.144531 481.867188 1584.980469 478.933594 1581.746094 C 476 1578.507812 473.148438 1575.203125 470.378906 1571.824219 C 467.605469 1568.449219 464.921875 1565.007812 462.320312 1561.5 C 459.714844 1557.988281 457.203125 1554.417969 454.773438 1550.789062 C 452.347656 1547.15625 450.011719 1543.464844 447.765625 1539.71875 C 445.519531 1535.972656 443.367188 1532.171875 441.308594 1528.320312 C 439.25 1524.46875 437.285156 1520.566406 435.417969 1516.617188 C 433.550781 1512.671875 431.78125 1508.679688 430.109375 1504.640625 C 428.4375 1500.605469 426.867188 1496.53125 425.394531 1492.417969 C 423.921875 1488.304688 422.554688 1484.160156 421.285156 1479.980469 C 420.019531 1475.800781 418.851562 1471.589844 417.792969 1467.355469 C 416.730469 1463.117188 415.773438 1458.855469 414.921875 1454.570312 C 414.070312 1450.289062 413.324219 1445.984375 412.679688 1441.664062 C 412.039062 1437.34375 411.507812 1433.007812 411.078125 1428.660156 C 410.648438 1424.316406 410.328125 1419.960938 410.113281 1415.597656 C 409.898438 1411.234375 409.792969 1406.867188 409.792969 1402.5 C 409.792969 1398.132812 409.898438 1393.765625 410.113281 1389.402344 C 410.328125 1385.039062 410.648438 1380.6875 411.078125 1376.339844 C 411.507812 1371.992188 412.039062 1367.65625 412.679688 1363.335938 C 413.324219 1359.015625 414.070312 1354.714844 414.921875 1350.429688 C 415.773438 1346.144531 416.730469 1341.882812 417.792969 1337.644531 C 418.851562 1333.410156 420.019531 1329.199219 421.285156 1325.019531 C 422.554688 1320.839844 423.921875 1316.695312 425.394531 1312.582031 C 426.867188 1308.46875 428.4375 1304.394531 430.109375 1300.359375 C 431.78125 1296.324219 433.550781 1292.332031 435.417969 1288.382812 C 437.285156 1284.433594 439.25 1280.53125 441.308594 1276.679688 C 443.367188 1272.828125 445.519531 1269.027344 447.765625 1265.28125 C 450.011719 1261.535156 452.347656 1257.84375 454.773438 1254.210938 C 457.203125 1250.582031 459.714844 1247.011719 462.320312 1243.503906 C 464.921875 1239.992188 467.605469 1236.550781 470.378906 1233.175781 C 473.148438 1229.796875 476 1226.492188 478.933594 1223.253906 C 481.867188 1220.019531 484.878906 1216.855469 487.96875 1213.765625 C 491.058594 1210.675781 494.21875 1207.667969 497.457031 1204.734375 C 500.695312 1201.800781 504 1198.945312 507.375 1196.175781 C 510.753906 1193.40625 514.195312 1190.71875 517.703125 1188.117188 C 521.214844 1185.515625 524.785156 1183 528.414062 1180.574219 C 532.046875 1178.144531 535.738281 1175.808594 539.484375 1173.5625 C 543.230469 1171.316406 547.03125 1169.164062 550.882812 1167.105469 C 554.734375 1165.046875 558.636719 1163.085938 562.582031 1161.214844 C 566.53125 1159.347656 570.523438 1157.578125 574.558594 1155.90625 C 578.597656 1154.234375 582.671875 1152.664062 586.785156 1151.191406 C 590.894531 1149.722656 595.042969 1148.351562 599.222656 1147.082031 C 603.402344 1145.816406 607.613281 1144.652344 611.847656 1143.589844 C 616.085938 1142.527344 620.347656 1141.570312 624.632812 1140.71875 C 628.914062 1139.867188 633.21875 1139.121094 637.539062 1138.480469 C 641.859375 1137.839844 646.195312 1137.304688 650.539062 1136.875 C 654.886719 1136.449219 659.242188 1136.125 663.605469 1135.910156 C 667.96875 1135.699219 672.335938 1135.589844 676.703125 1135.589844 C 681.070312 1135.589844 685.4375 1135.699219 689.800781 1135.910156 C 694.160156 1136.125 698.515625 1136.449219 702.863281 1136.875 C 707.210938 1137.304688 711.546875 1137.839844 715.867188 1138.480469 C 720.1875 1139.121094 724.488281 1139.867188 728.773438 1140.71875 C 733.058594 1141.570312 737.320312 1142.527344 741.554688 1143.589844 C 745.792969 1144.652344 750.003906 1145.816406 754.183594 1147.082031 C 758.363281 1148.351562 762.507812 1149.722656 766.621094 1151.191406 C 770.734375 1152.664062 774.808594 1154.234375 778.84375 1155.90625 C 782.878906 1157.578125 786.871094 1159.347656 790.820312 1161.214844 C 794.769531 1163.085938 798.671875 1165.046875 802.523438 1167.105469 C 806.375 1169.164062 810.175781 1171.316406 813.921875 1173.5625 C 817.667969 1175.808594 821.359375 1178.144531 824.988281 1180.574219 C 828.621094 1183 832.191406 1185.515625 835.699219 1188.117188 C 839.210938 1190.71875 842.652344 1193.40625 846.027344 1196.175781 C 849.40625 1198.945312 852.710938 1201.800781 855.949219 1204.734375 C 859.183594 1207.667969 862.347656 1210.675781 865.4375 1213.765625 C 868.523438 1216.855469 871.535156 1220.019531 874.46875 1223.253906 C 877.402344 1226.492188 880.253906 1229.796875 883.027344 1233.175781 C 885.796875 1236.550781 888.484375 1239.992188 891.085938 1243.503906 C 893.6875 1247.011719 896.203125 1250.582031 898.628906 1254.214844 C 901.058594 1257.84375 903.394531 1261.535156 905.640625 1265.28125 C 907.882812 1269.027344 910.035156 1272.828125 912.097656 1276.679688 C 914.15625 1280.53125 916.117188 1284.433594 917.984375 1288.382812 C 919.855469 1292.332031 921.625 1296.324219 923.296875 1300.359375 C 924.964844 1304.394531 926.539062 1308.46875 928.011719 1312.582031 C 929.480469 1316.695312 930.851562 1320.839844 932.121094 1325.019531 C 933.386719 1329.199219 934.550781 1333.410156 935.613281 1337.644531 C 936.675781 1341.882812 937.632812 1346.144531 938.484375 1350.429688 C 939.335938 1354.710938 940.082031 1359.015625 940.722656 1363.335938 C 941.363281 1367.65625 941.898438 1371.992188 942.328125 1376.339844 C 942.753906 1380.6875 943.078125 1385.039062 943.289062 1389.402344 C 943.503906 1393.765625 943.613281 1398.132812 943.613281 1402.5 Z M 943.613281 1402.5 " fill-opacity="1" fill-rule="nonzero"/></g><g clip-path="url(#id2)"><path fill="rgb(9.01947%, 84.709167%, 88.62915%)" d="M 3214.792969 1402.5 C 3214.792969 1406.867188 3214.6875 1411.234375 3214.472656 1415.597656 C 3214.257812 1419.960938 3213.9375 1424.316406 3213.507812 1428.660156 C 3213.078125 1433.007812 3212.542969 1437.34375 3211.902344 1441.664062 C 3211.261719 1445.984375 3210.515625 1450.289062 3209.664062 1454.570312 C 3208.8125 1458.855469 3207.855469 1463.117188 3206.792969 1467.355469 C 3205.730469 1471.589844 3204.566406 1475.800781 3203.300781 1479.980469 C 3202.03125 1484.160156 3200.660156 1488.304688 3199.191406 1492.417969 C 3197.71875 1496.53125 3196.148438 1500.605469 3194.476562 1504.640625 C 3192.804688 1508.679688 3191.035156 1512.671875 3189.167969 1516.617188 C 3187.300781 1520.566406 3185.335938 1524.46875 3183.277344 1528.320312 C 3181.21875 1532.171875 3179.066406 1535.972656 3176.820312 1539.71875 C 3174.574219 1543.464844 3172.238281 1547.15625 3169.808594 1550.789062 C 3167.382812 1554.417969 3164.867188 1557.988281 3162.265625 1561.5 C 3159.664062 1565.007812 3156.976562 1568.449219 3154.207031 1571.824219 C 3151.4375 1575.203125 3148.582031 1578.507812 3145.648438 1581.746094 C 3142.714844 1584.980469 3139.707031 1588.144531 3136.617188 1591.234375 C 3133.527344 1594.324219 3130.367188 1597.332031 3127.128906 1600.265625 C 3123.890625 1603.199219 3120.585938 1606.054688 3117.207031 1608.824219 C 3113.832031 1611.59375 3110.390625 1614.28125 3106.882812 1616.882812 C 3103.371094 1619.484375 3099.800781 1622 3096.171875 1624.425781 C 3092.539062 1626.855469 3088.847656 1629.191406 3085.101562 1631.4375 C 3081.355469 1633.683594 3077.554688 1635.835938 3073.703125 1637.894531 C 3069.851562 1639.953125 3065.949219 1641.917969 3062 1643.785156 C 3058.054688 1645.652344 3054.058594 1647.421875 3050.023438 1649.09375 C 3045.988281 1650.765625 3041.914062 1652.335938 3037.800781 1653.808594 C 3033.6875 1655.277344 3029.542969 1656.648438 3025.363281 1657.917969 C 3021.183594 1659.183594 3016.972656 1660.351562 3012.738281 1661.410156 C 3008.5 1662.472656 3004.238281 1663.429688 2999.953125 1664.28125 C 2995.671875 1665.132812 2991.367188 1665.878906 2987.046875 1666.519531 C 2982.726562 1667.164062 2978.390625 1667.695312 2974.046875 1668.125 C 2969.699219 1668.554688 2965.34375 1668.875 2960.980469 1669.089844 C 2956.617188 1669.304688 2952.25 1669.410156 2947.882812 1669.410156 C 2943.515625 1669.410156 2939.148438 1669.304688 2934.785156 1669.089844 C 2930.421875 1668.875 2926.070312 1668.554688 2921.722656 1668.125 C 2917.375 1667.695312 2913.039062 1667.164062 2908.71875 1666.519531 C 2904.398438 1665.878906 2900.097656 1665.132812 2895.8125 1664.28125 C 2891.527344 1663.429688 2887.265625 1662.472656 2883.027344 1661.410156 C 2878.792969 1660.351562 2874.582031 1659.183594 2870.402344 1657.917969 C 2866.222656 1656.648438 2862.078125 1655.277344 2857.964844 1653.808594 C 2853.851562 1652.335938 2849.777344 1650.765625 2845.742188 1649.09375 C 2841.707031 1647.421875 2837.714844 1645.652344 2833.765625 1643.785156 C 2829.816406 1641.917969 2825.914062 1639.953125 2822.0625 1637.894531 C 2818.210938 1635.835938 2814.410156 1633.683594 2810.664062 1631.4375 C 2806.917969 1629.191406 2803.226562 1626.855469 2799.597656 1624.425781 C 2795.964844 1622 2792.394531 1619.484375 2788.886719 1616.882812 C 2785.375 1614.28125 2781.933594 1611.59375 2778.558594 1608.824219 C 2775.179688 1606.054688 2771.875 1603.199219 2768.636719 1600.265625 C 2765.398438 1597.332031 2762.238281 1594.324219 2759.148438 1591.234375 C 2756.058594 1588.144531 2753.050781 1584.980469 2750.117188 1581.746094 C 2747.183594 1578.507812 2744.328125 1575.203125 2741.558594 1571.824219 C 2738.789062 1568.449219 2736.101562 1565.007812 2733.5 1561.5 C 2730.898438 1557.988281 2728.382812 1554.417969 2725.957031 1550.789062 C 2723.527344 1547.15625 2721.191406 1543.464844 2718.945312 1539.71875 C 2716.699219 1535.972656 2714.546875 1532.171875 2712.488281 1528.320312 C 2710.429688 1524.46875 2708.46875 1520.566406 2706.597656 1516.617188 C 2704.730469 1512.671875 2702.960938 1508.679688 2701.289062 1504.640625 C 2699.617188 1500.605469 2698.046875 1496.53125 2696.574219 1492.417969 C 2695.105469 1488.304688 2693.734375 1484.160156 2692.464844 1479.980469 C 2691.199219 1475.800781 2690.035156 1471.589844 2688.972656 1467.355469 C 2687.910156 1463.117188 2686.953125 1458.855469 2686.101562 1454.570312 C 2685.25 1450.289062 2684.503906 1445.984375 2683.863281 1441.664062 C 2683.222656 1437.34375 2682.6875 1433.007812 2682.257812 1428.660156 C 2681.828125 1424.316406 2681.507812 1419.960938 2681.292969 1415.597656 C 2681.082031 1411.234375 2680.972656 1406.867188 2680.972656 1402.5 C 2680.972656 1398.132812 2681.082031 1393.765625 2681.292969 1389.402344 C 2681.507812 1385.039062 2681.832031 1380.6875 2682.257812 1376.339844 C 2682.6875 1371.992188 2683.222656 1367.65625 2683.863281 1363.335938 C 2684.503906 1359.015625 2685.25 1354.714844 2686.101562 1350.429688 C 2686.953125 1346.144531 2687.910156 1341.882812 2688.972656 1337.644531 C 2690.035156 1333.410156 2691.199219 1329.199219 2692.464844 1325.019531 C 2693.734375 1320.839844 2695.105469 1316.695312 2696.574219 1312.582031 C 2698.046875 1308.46875 2699.617188 1304.394531 2701.289062 1300.359375 C 2702.960938 1296.324219 2704.730469 1292.332031 2706.597656 1288.382812 C 2708.46875 1284.433594 2710.429688 1280.53125 2712.488281 1276.679688 C 2714.546875 1272.828125 2716.699219 1269.027344 2718.945312 1265.28125 C 2721.191406 1261.535156 2723.527344 1257.84375 2725.957031 1254.210938 C 2728.382812 1250.582031 2730.898438 1247.011719 2733.5 1243.503906 C 2736.101562 1239.992188 2738.789062 1236.550781 2741.558594 1233.175781 C 2744.328125 1229.796875 2747.183594 1226.492188 2750.117188 1223.253906 C 2753.050781 1220.019531 2756.058594 1216.855469 2759.148438 1213.765625 C 2762.238281 1210.675781 2765.398438 1207.667969 2768.636719 1204.734375 C 2771.875 1201.800781 2775.179688 1198.945312 2778.558594 1196.175781 C 2781.933594 1193.40625 2785.375 1190.71875 2788.882812 1188.117188 C 2792.394531 1185.515625 2795.964844 1183 2799.59375 1180.574219 C 2803.226562 1178.144531 2806.917969 1175.808594 2810.664062 1173.5625 C 2814.410156 1171.316406 2818.210938 1169.164062 2822.0625 1167.105469 C 2825.914062 1165.046875 2829.816406 1163.085938 2833.765625 1161.214844 C 2837.714844 1159.347656 2841.707031 1157.578125 2845.742188 1155.90625 C 2849.777344 1154.234375 2853.851562 1152.664062 2857.964844 1151.191406 C 2862.078125 1149.722656 2866.222656 1148.351562 2870.402344 1147.082031 C 2874.582031 1145.816406 2878.792969 1144.652344 2883.027344 1143.589844 C 2887.265625 1142.527344 2891.527344 1141.570312 2895.8125 1140.71875 C 2900.097656 1139.867188 2904.398438 1139.121094 2908.71875 1138.480469 C 2913.039062 1137.839844 2917.375 1137.304688 2921.722656 1136.875 C 2926.070312 1136.449219 2930.421875 1136.125 2934.785156 1135.910156 C 2939.148438 1135.699219 2943.515625 1135.589844 2947.882812 1135.589844 C 2952.25 1135.589844 2956.617188 1135.699219 2960.980469 1135.910156 C 2965.34375 1136.125 2969.699219 1136.449219 2974.046875 1136.875 C 2978.390625 1137.304688 2982.726562 1137.839844 2987.046875 1138.480469 C 2991.367188 1139.121094 2995.671875 1139.867188 2999.953125 1140.71875 C 3004.238281 1141.570312 3008.5 1142.527344 3012.738281 1143.589844 C 3016.972656 1144.652344 3021.183594 1145.816406 3025.363281 1147.082031 C 3029.542969 1148.351562 3033.6875 1149.722656 3037.800781 1151.191406 C 3041.914062 1152.664062 3045.988281 1154.234375 3050.023438 1155.90625 C 3054.058594 1157.578125 3058.054688 1159.347656 3062 1161.214844 C 3065.949219 1163.085938 3069.851562 1165.046875 3073.703125 1167.105469 C 3077.554688 1169.164062 3081.355469 1171.316406 3085.101562 1173.5625 C 3088.847656 1175.808594 3092.539062 1178.144531 3096.171875 1180.574219 C 3099.800781 1183 3103.371094 1185.515625 3106.882812 1188.117188 C 3110.390625 1190.71875 3113.832031 1193.40625 3117.207031 1196.175781 C 3120.585938 1198.945312 3123.890625 1201.800781 3127.128906 1204.734375 C 3130.367188 1207.667969 3133.527344 1210.675781 3136.617188 1213.765625 C 3139.707031 1216.855469 3142.714844 1220.019531 3145.648438 1223.253906 C 3148.582031 1226.492188 3151.4375 1229.796875 3154.207031 1233.175781 C 3156.976562 1236.550781 3159.664062 1239.992188 3162.265625 1243.503906 C 3164.867188 1247.011719 3167.382812 1250.582031 3169.808594 1254.214844 C 3172.238281 1257.84375 3174.574219 1261.535156 3176.820312 1265.28125 C 3179.066406 1269.027344 3181.21875 1272.828125 3183.277344 1276.679688 C 3185.335938 1280.53125 3187.300781 1284.433594 3189.167969 1288.382812 C 3191.035156 1292.332031 3192.804688 1296.324219 3194.476562 1300.359375 C 3196.148438 1304.394531 3197.71875 1308.46875 3199.191406 1312.582031 C 3200.660156 1316.695312 3202.03125 1320.839844 3203.300781 1325.019531 C 3204.566406 1329.199219 3205.730469 1333.410156 3206.792969 1337.644531 C 3207.855469 1341.882812 3208.8125 1346.144531 3209.664062 1350.429688 C 3210.515625 1354.710938 3211.261719 1359.015625 3211.902344 1363.335938 C 3212.542969 1367.65625 3213.078125 1371.992188 3213.507812 1376.339844 C 3213.9375 1380.6875 3214.257812 1385.039062 3214.472656 1389.402344 C 3214.6875 1393.765625 3214.792969 1398.132812 3214.792969 1402.5 Z M 3214.792969 1402.5 " fill-opacity="1" fill-rule="nonzero"/></g><g clip-path="url(#id3)"><path fill="rgb(13.729858%, 12.159729%, 12.548828%)" d="M 2585.910156 2128.941406 L 2221.328125 1764.355469 C 2126.125 1669.15625 2078.113281 1538.863281 2078.984375 1404.230469 C 2078.992188 1403.074219 2078.992188 1401.917969 2078.984375 1400.761719 C 2078.113281 1266.128906 2126.125 1135.835938 2221.328125 1040.636719 L 2586.753906 675.207031 C 2681.925781 580.035156 2812.328125 533.089844 2946.921875 533.710938 C 3017.144531 534.035156 3087.445312 506.800781 3140.257812 451.933594 C 3236.472656 351.976562 3238.921875 190.214844 3145.570312 87.578125 C 3042.292969 -25.96875 2866.410156 -29.101562 2759.128906 78.179688 C 2706.277344 131.03125 2680.289062 200.496094 2681.089844 269.734375 C 2682.644531 404.015625 2633.691406 533.910156 2538.734375 628.867188 L 2174.148438 993.457031 C 2078.945312 1088.65625 1948.652344 1136.671875 1814.023438 1135.800781 C 1812.867188 1135.792969 1811.710938 1135.792969 1810.558594 1135.800781 C 1675.925781 1136.671875 1545.632812 1088.65625 1450.429688 993.457031 L 1085 628.027344 C 989.828125 532.855469 942.882812 402.453125 943.503906 267.859375 C 943.824219 197.640625 916.589844 127.335938 861.726562 74.527344 C 761.765625 -21.6875 600.003906 -24.136719 497.367188 69.21875 C 383.824219 172.492188 380.691406 348.375 487.972656 455.65625 C 540.824219 508.507812 610.289062 534.496094 679.527344 533.695312 C 813.808594 532.140625 943.707031 581.09375 1038.667969 676.050781 L 1403.25 1040.636719 C 1498.449219 1135.835938 1546.464844 1266.128906 1545.59375 1400.761719 C 1545.585938 1401.917969 1545.585938 1403.074219 1545.59375 1404.230469 C 1546.464844 1538.863281 1498.449219 1669.15625 1403.25 1764.355469 L 1037.820312 2129.789062 C 942.648438 2224.960938 812.246094 2271.902344 677.65625 2271.28125 C 607.433594 2270.960938 537.132812 2298.191406 484.320312 2353.058594 C 388.105469 2453.019531 385.65625 2614.777344 479.007812 2717.417969 C 582.285156 2830.964844 758.167969 2834.097656 865.449219 2726.8125 C 918.300781 2673.960938 944.289062 2604.496094 943.488281 2535.257812 C 941.933594 2400.976562 990.886719 2271.082031 1085.84375 2176.125 L 1450.429688 1811.535156 C 1545.632812 1716.335938 1675.925781 1668.320312 1810.554688 1669.191406 C 1811.710938 1669.199219 1812.867188 1669.199219 1814.019531 1669.191406 C 1948.652344 1668.320312 2078.945312 1716.335938 2174.144531 1811.535156 L 2539.582031 2176.96875 C 2634.75 2272.140625 2681.695312 2402.539062 2681.074219 2537.132812 C 2680.753906 2607.351562 2707.984375 2677.652344 2762.847656 2730.464844 C 2862.808594 2826.679688 3024.566406 2829.132812 3127.207031 2735.777344 C 3240.753906 2632.503906 3243.886719 2456.617188 3136.605469 2349.335938 C 3083.753906 2296.484375 3014.285156 2270.496094 2945.050781 2271.296875 C 2810.765625 2272.851562 2680.867188 2223.898438 2585.910156 2128.941406 Z M 2585.910156 2128.941406 " fill-opacity="1" fill-rule="nonzero"/></g><g fill="rgb(13.729858%, 12.159729%, 12.548828%)" fill-opacity="1"><g transform="translate(873.941247, 3625.416211)"><g><path d="M 360.078125 -352.03125 L 360.078125 0 L 306.265625 0 L 112.140625 -238.375 L 112.140625 0 L 47.265625 0 L 47.265625 -352.03125 L 101.078125 -352.03125 L 295.203125 -113.65625 L 295.203125 -352.03125 Z M 360.078125 -352.03125 "/></g></g></g><g fill="rgb(13.729858%, 12.159729%, 12.548828%)" fill-opacity="1"><g transform="translate(1381.863917, 3625.416211)"><g><path d="M 311.296875 -54.8125 L 311.296875 0 L 47.265625 0 L 47.265625 -352.03125 L 304.265625 -352.03125 L 304.265625 -297.21875 L 112.65625 -297.21875 L 112.65625 -205.6875 L 282.640625 -205.6875 L 282.640625 -151.875 L 112.65625 -151.875 L 112.65625 -54.8125 Z M 311.296875 -54.8125 "/></g></g></g><g fill="rgb(13.729858%, 12.159729%, 12.548828%)" fill-opacity="1"><g transform="translate(1819.383833, 3625.416211)"><g><path d="M 211.71875 5.03125 C 175.84375 5.03125 143.488281 -2.757812 114.65625 -18.34375 C 85.820312 -33.9375 63.191406 -55.5625 46.765625 -83.21875 C 30.335938 -110.882812 22.125 -141.816406 22.125 -176.015625 C 22.125 -210.210938 30.335938 -241.140625 46.765625 -268.796875 C 63.191406 -296.460938 85.820312 -318.085938 114.65625 -333.671875 C 143.488281 -349.265625 175.84375 -357.0625 211.71875 -357.0625 C 247.59375 -357.0625 279.945312 -349.265625 308.78125 -333.671875 C 337.613281 -318.085938 360.242188 -296.546875 376.671875 -269.046875 C 393.097656 -241.554688 401.3125 -210.546875 401.3125 -176.015625 C 401.3125 -141.484375 393.097656 -110.46875 376.671875 -82.96875 C 360.242188 -55.476562 337.613281 -33.9375 308.78125 -18.34375 C 279.945312 -2.757812 247.59375 5.03125 211.71875 5.03125 Z M 211.71875 -52.296875 C 235.1875 -52.296875 256.304688 -57.578125 275.078125 -68.140625 C 293.859375 -78.703125 308.613281 -93.453125 319.34375 -112.390625 C 330.070312 -131.335938 335.4375 -152.546875 335.4375 -176.015625 C 335.4375 -199.484375 330.070312 -220.6875 319.34375 -239.625 C 308.613281 -258.570312 293.859375 -273.328125 275.078125 -283.890625 C 256.304688 -294.453125 235.1875 -299.734375 211.71875 -299.734375 C 188.25 -299.734375 167.125 -294.453125 148.34375 -283.890625 C 129.570312 -273.328125 114.820312 -258.570312 104.09375 -239.625 C 93.375 -220.6875 88.015625 -199.484375 88.015625 -176.015625 C 88.015625 -152.546875 93.375 -131.335938 104.09375 -112.390625 C 114.820312 -93.453125 129.570312 -78.703125 148.34375 -68.140625 C 167.125 -57.578125 188.25 -52.296875 211.71875 -52.296875 Z M 211.71875 -52.296875 "/></g></g></g><g fill="rgb(13.729858%, 12.159729%, 12.548828%)" fill-opacity="1"><g transform="translate(2343.398371, 3625.416211)"><g><path d="M 360.078125 -352.03125 L 360.078125 0 L 306.265625 0 L 112.140625 -238.375 L 112.140625 0 L 47.265625 0 L 47.265625 -352.03125 L 101.078125 -352.03125 L 295.203125 -113.65625 L 295.203125 -352.03125 Z M 360.078125 -352.03125 "/></g></g></g></svg>